<?xml version="1.0" encoding="UTF-8" standalone="no"?>
<svg
   xmlns:dc="http://purl.org/dc/elements/1.1/"
   xmlns:cc="http://creativecommons.org/ns#"
   xmlns:rdf="http://www.w3.org/1999/02/22-rdf-syntax-ns#"
   xmlns:svg="http://www.w3.org/2000/svg"
   xmlns="http://www.w3.org/2000/svg"
   xmlns:xlink="http://www.w3.org/1999/xlink"
   xmlns:sodipodi="http://sodipodi.sourceforge.net/DTD/sodipodi-0.dtd"
   xmlns:inkscape="http://www.inkscape.org/namespaces/inkscape"
   width="70"
   height="70"
   version="1.1"
   id="svg889"
   sodipodi:docname="adiczion_icon_odoo.svg"
   inkscape:version="1.0.2 (e86c870879, 2021-01-15)"
   inkscape:export-filename="/home/xt0ph/Documents/NotreNuage/Adiczion/multimedia/graphismes/logo/adiczion.svg.png"
   inkscape:export-xdpi="96"
   inkscape:export-ydpi="96">
  <metadata
     id="metadata893">
    <rdf:RDF>
      <cc:Work
         rdf:about="">
        <dc:format>image/svg+xml</dc:format>
        <dc:type
           rdf:resource="http://purl.org/dc/dcmitype/StillImage" />
        <dc:title></dc:title>
      </cc:Work>
    </rdf:RDF>
  </metadata>
  <sodipodi:namedview
     pagecolor="#ffffff"
     bordercolor="#666666"
     borderopacity="1"
     objecttolerance="10"
     gridtolerance="10"
     guidetolerance="10"
     inkscape:pageopacity="0"
     inkscape:pageshadow="2"
     inkscape:window-width="2946"
     inkscape:window-height="1261"
     id="namedview891"
     showgrid="false"
     showguides="true"
     inkscape:guide-bbox="true"
     inkscape:zoom="8.0000001"
     inkscape:cx="47.139411"
     inkscape:cy="37.288628"
     inkscape:window-x="1409"
     inkscape:window-y="401"
     inkscape:window-maximized="0"
     inkscape:current-layer="svg889"
     units="px"
     inkscape:document-rotation="0">
    <sodipodi:guide
       position="2.3320312,72.71875"
       orientation="1,0"
       id="guide2089"
       inkscape:locked="false" />
    <sodipodi:guide
       position="3.0390625,72.335938"
       orientation="0,1"
       id="guide2091"
       inkscape:locked="false" />
    <sodipodi:guide
       position="72.332031,71.214844"
       orientation="1,0"
       id="guide2093"
       inkscape:locked="false" />
    <sodipodi:guide
       position="73.480469,2.3359375"
       orientation="0,1"
       id="guide2095"
       inkscape:locked="false" />
    <sodipodi:guide
       position="-2.15625,71.3125"
       orientation="0,1"
       id="guide2103"
       inkscape:locked="false" />
    <sodipodi:guide
       position="2.0859375,3.3320313"
       orientation="0,1"
       id="guide2105"
       inkscape:locked="false" />
    <sodipodi:guide
       position="53.5,52"
       orientation="0,1"
       id="guide2137"
       inkscape:locked="false" />
    <sodipodi:guide
       position="76.656249,1.0312505"
       orientation="0,-1"
       id="guide1038" />
  </sodipodi:namedview>
  <defs
     id="defs879">
    <linearGradient
       spreadMethod="pad"
       y2="70"
       x2="0"
       y1="0"
       x1="70"
       gradientUnits="userSpaceOnUse"
       id="linearGradient2116">
      <stop
         id="stop2112"
         stop-opacity="1.00000000000"
         offset="0.00000000000"
         stop-color="#cd7690"
         style="stop-color:#ffb428;stop-opacity:1" />
      <stop
         id="stop2114"
         stop-opacity="1.00000000000"
         offset="1.00000000000"
         stop-color="#ca5377"
         style="stop-color:#fa9d00;stop-opacity:1" />
    </linearGradient>
    <linearGradient
       spreadMethod="pad"
       y2="70"
       x2="0"
       y1="0"
       x1="70"
       gradientUnits="userSpaceOnUse"
       id="gradient0">
      <stop
         id="stop2107"
         stop-opacity="1.00000000000"
         offset="0.00000000000"
         stop-color="#cd7690" />
      <stop
         id="stop2109"
         stop-opacity="1.00000000000"
         offset="1.00000000000"
         stop-color="#ca5377" />
    </linearGradient>
    <linearGradient
       id="gradient0-8"
       gradientUnits="userSpaceOnUse"
       x1="70"
       y1="0"
       x2="0"
       y2="70"
       spreadMethod="pad">
      <stop
         stop-color="#cd7690"
         offset="0.00000000000"
         stop-opacity="1.00000000000"
         id="stop874" />
      <stop
         stop-color="#ca5377"
         offset="1.00000000000"
         stop-opacity="1.00000000000"
         id="stop876" />
    </linearGradient>
    <linearGradient
       inkscape:collect="always"
       xlink:href="#linearGradient2116"
       id="linearGradient2077"
       x1="28.405571"
       y1="-16.354654"
       x2="14.635043"
       y2="-4.0044117"
       gradientUnits="userSpaceOnUse"
       gradientTransform="matrix(5.0832982,0,0,5.667905,-74.39429,92.696627)" />
  </defs>
  <rect
     ry="2.6654205"
     y="-2.3069764e-07"
     x="4.3590235e-06"
     height="70"
     width="69.999695"
     id="rect2069"
     style="opacity:0.868;fill:url(#linearGradient2077);fill-opacity:1;stroke:none;stroke-width:41.325;stroke-miterlimit:4;stroke-dasharray:none;stroke-opacity:0.525692" />
  <path
     style="fill:#ffffff;fill-opacity:0.383001;fill-rule:evenodd;stroke-width:0.999998"
     inkscape:connector-curvature="0"
     d="M 4.0012889,1.0026043 H 65.001022 c 2.666988,0 4.332981,0.667 4.999978,2 v -3 H 0.0013064 v 3 c 0.66699709,-1.333 1.9999913,-2 3.9999825,-2 z"
     id="shape1" />
  <path
     sodipodi:nodetypes="ccsccccccccccc"
     style="opacity:0.324;fill:#393939;fill-rule:evenodd;stroke-width:1.08226"
     inkscape:connector-curvature="0"
     d="M 44.963058,68.968749 4,69.002604 c -3.05352695,0 -4.00035513334,-2.611371 -4,-2.822821 L 0.04168145,41.362259 12.47294,27.494399 22.822388,22.952107 53.349055,21.906111 47.395366,31.314605 30.61427,44.722491 37.916852,44.858243 60.219876,26.121958 42.974354,45.489471 61.904425,50.052894 Z"
     id="shape2" />
  <path
     sodipodi:nodetypes="csccccccsc"
     style="fill:#000000;fill-opacity:0.383001;fill-rule:evenodd;stroke-width:0.999998"
     inkscape:connector-curvature="0"
     d="M 4.0012889,69.002604 H 65.001022 c 2.666988,0 4.332981,-1 4.999978,-3 l -0.0013,1.365101 C 69.9997,68.657638 68.967619,70 67.316829,70 L 2.7573636,69.999954 C 1.0901196,69.999954 6.3090149e-6,68.726977 6.3090149e-6,67.459881 L 0.0013063,66.002562 c 0.66699709,2 1.9999913,3 3.9999825,3 z"
     id="shape3" />
  <g
     id="g1036"
     transform="translate(0,-1.3080022)">
    <path
       id="path1032"
       style="color:#000000;font-style:normal;font-variant:normal;font-weight:normal;font-stretch:normal;font-size:medium;line-height:normal;font-family:Sans;-inkscape-font-specification:Sans;text-indent:0;text-align:start;text-decoration:none;text-decoration-line:none;letter-spacing:normal;word-spacing:normal;text-transform:none;writing-mode:lr-tb;direction:ltr;baseline-shift:baseline;text-anchor:start;display:inline;overflow:visible;visibility:visible;opacity:0.3;fill:#00000a;fill-opacity:1;stroke:none;stroke-width:3.54959;marker:none;enable-background:accumulate"
       d="m 34.404366,20.281044 c -15.123914,0 -27.4043641,12.084056 -27.4043641,27.207982 v 3.77747 c 0,0.871777 0.359011,1.738113 0.975443,2.354548 0.616447,0.616443 1.482787,0.975444 2.3545481,0.975444 0.871777,0 1.738101,-0.359 2.354549,-0.975444 0.616432,-0.616435 0.975443,-1.482771 0.975443,-2.354548 v -3.777469 c 0,-7.092963 3.468226,-13.222703 8.819386,-16.897937 3.32188,-2.232199 6.31627,-2.88835 6.75165,-3.025767 1.651035,-0.408068 3.383765,-0.624606 5.173345,-0.624606 h 17.00079 l -19.60643,18.431171 c -1.60876,1.510265 -2.597865,3.177503 -2.975415,4.999649 v 1.64169 c 0,1.723655 0.834595,2.593204 2.508985,2.593204 h 24.89197 v 0.0096 h 3.27406 c 0.91718,0.003 1.82876,-0.38228 2.46859,-1.039459 0.31882,-0.34317 0.99527,-1.15262 0.97326,-2.495627 0.003,-0.04371 0.003,-0.08951 0,-0.13673 h -3.1e-4 c -0.0343,-0.708279 -0.55995,-1.778891 -1.08172,-2.278415 -0.62947,-0.584993 -1.48465,-0.92059 -2.34399,-0.919508 h -3.20134 v -0.01429 h -15.62478 l 19.53184,-18.020998 c 1.47737,-1.986277 2.40174,-3.75486 2.77935,-5.297968 v -1.52982 c 0.0328,-1.707207 -0.97944,-2.569347 -3.03136,-2.602216 z M 22.622621,39.448383 c -2.370693,0.03295 -3.56306,1.19081 -3.563053,3.47915 0,2.271912 1.243073,3.40023 3.712523,3.367282 2.22248,1.8e-5 3.32968,-1.155666 3.32968,-3.460506 0,-2.288335 -1.15791,-3.418832 -3.47915,-3.385926 z"
       sodipodi:nodetypes="ssssssssccscccssccccccccccccccccscscsc" />
    <path
       id="path1119"
       style="color:#000000;font-style:normal;font-variant:normal;font-weight:normal;font-stretch:normal;font-size:medium;line-height:normal;font-family:Sans;-inkscape-font-specification:Sans;text-indent:0;text-align:start;text-decoration:none;text-decoration-line:none;letter-spacing:normal;word-spacing:normal;text-transform:none;writing-mode:lr-tb;direction:ltr;baseline-shift:baseline;text-anchor:start;display:inline;overflow:visible;visibility:visible;fill:#ffffff;fill-opacity:1;stroke:none;stroke-width:3.54959;marker:none;enable-background:accumulate"
       d="M 34.404366,18 C 19.280452,18 7.0000019,30.084056 7.0000019,45.207982 v 3.77747 c 0,0.871777 0.359011,1.738113 0.975443,2.354548 0.616447,0.616443 1.482787,0.975444 2.3545481,0.975444 0.871777,0 1.738101,-0.359 2.354549,-0.975444 0.616432,-0.616435 0.975443,-1.482771 0.975443,-2.354548 v -3.777469 c 0,-7.092963 3.468226,-13.222703 8.819386,-16.897937 3.32188,-2.232199 6.31627,-2.88835 6.75165,-3.025767 1.651035,-0.408068 3.383765,-0.624606 5.173345,-0.624606 h 17.00079 l -19.60643,18.431171 c -1.60876,1.510265 -2.597865,3.177503 -2.975415,4.999649 v 1.64169 c 0,1.723655 0.834595,2.593204 2.508985,2.593204 h 24.89197 v 0.0096 h 3.27406 c 0.91718,0.003 1.82876,-0.38228 2.46859,-1.039459 0.31882,-0.34317 0.99527,-1.15262 0.97326,-2.495627 0.003,-0.04371 0.003,-0.08951 0,-0.13673 h -3.1e-4 c -0.0343,-0.708279 -0.55995,-1.778891 -1.08172,-2.278415 -0.62947,-0.584993 -1.48465,-0.92059 -2.34399,-0.919508 h -3.20134 v -0.01429 H 40.688036 L 60.219876,27.42996 c 1.47737,-1.986277 2.40174,-3.75486 2.77935,-5.297968 v -1.52982 c 0.0328,-1.707207 -0.97944,-2.569347 -3.03136,-2.602216 z M 22.622621,37.167339 c -2.370693,0.03295 -3.56306,1.19081 -3.563053,3.47915 0,2.271912 1.243073,3.40023 3.712523,3.367282 2.22248,1.8e-5 3.32968,-1.155666 3.32968,-3.460506 0,-2.288335 -1.15791,-3.418832 -3.47915,-3.385926 z"
       sodipodi:nodetypes="ssssssssccscccssccccccccccccccccscscsc" />
  </g>
</svg>
